<svg width="1124" height="70" viewBox="0 0 1124 70" fill="none" xmlns="http://www.w3.org/2000/svg">
<path d="M34.2639 0.799995C44.0559 0.799995 51.7999 3.264 57.4959 8.192C63.1919 13.056 66.0399 20.032 66.0399 29.12H45.7839C45.7839 25.28 44.7599 22.24 42.7119 20C40.7279 17.76 37.8799 16.64 34.1679 16.64C29.8799 16.64 26.7119 17.984 24.6639 20.672C22.6799 23.36 21.6879 27.104 21.6879 31.904V38.048C21.6879 42.784 22.6799 46.528 24.6639 49.28C26.7119 51.968 29.8159 53.312 33.9759 53.312C38.0719 53.312 41.1759 52.256 43.2879 50.144C45.3999 48.032 46.4559 45.056 46.4559 41.216H66.0399C66.0399 50.24 63.2559 57.152 57.6879 61.952C52.1839 66.752 44.3759 69.152 34.2639 69.152C22.9999 69.152 14.4559 66.272 8.63188 60.512C2.87188 54.752 -0.00812483 46.24 -0.00812483 34.976C-0.00812483 23.712 2.87188 15.2 8.63188 9.44C14.4559 3.68 22.9999 0.799995 34.2639 0.799995ZM140.183 22.208C140.183 26.24 139.095 29.888 136.919 33.152C134.743 36.416 131.575 38.816 127.415 40.352L142.103 68H118.295L106.583 43.904H98.7106V68H77.4946V1.952H117.911C122.647 1.952 126.679 2.88 130.007 4.736C133.399 6.528 135.927 8.992 137.591 12.128C139.319 15.2 140.183 18.56 140.183 22.208ZM118.583 23.072C118.583 21.344 118.007 19.904 116.855 18.752C115.703 17.6 114.295 17.024 112.631 17.024H98.7106V29.216H112.631C114.295 29.216 115.703 28.64 116.855 27.488C118.007 26.272 118.583 24.8 118.583 23.072ZM152.213 1.952H209.333V17.792H173.429V26.912H204.149V42.08H173.429V52.16H210.005V68H152.213V1.952ZM265.751 68L262.967 58.688H239.831L237.047 68H215.351L239.447 1.952H264.119L288.215 68H265.751ZM244.247 43.904H258.551L251.639 20.384H251.255L244.247 43.904ZM327.573 18.848V68H306.357V18.848H284.661V1.952H349.173V18.848H327.573ZM359.798 68V1.952H381.014V68H359.798ZM414.103 68L390.679 1.952H413.335L426.583 46.112H426.967L440.311 1.952H462.007L438.679 68H414.103ZM470.87 1.952H527.99V17.792H492.086V26.912H522.806V42.08H492.086V52.16H528.662V68H470.87V1.952ZM571.639 0.799995C581.431 0.799995 589.175 3.264 594.871 8.192C600.567 13.056 603.415 20.032 603.415 29.12H583.159C583.159 25.28 582.135 22.24 580.087 20C578.103 17.76 575.255 16.64 571.543 16.64C567.255 16.64 564.087 17.984 562.039 20.672C560.055 23.36 559.063 27.104 559.063 31.904V38.048C559.063 42.784 560.055 46.528 562.039 49.28C564.087 51.968 567.191 53.312 571.351 53.312C575.447 53.312 578.551 52.256 580.663 50.144C582.775 48.032 583.831 45.056 583.831 41.216H603.415C603.415 50.24 600.631 57.152 595.063 61.952C589.559 66.752 581.751 69.152 571.639 69.152C560.375 69.152 551.831 66.272 546.007 60.512C540.247 54.752 537.367 46.24 537.367 34.976C537.367 23.712 540.247 15.2 546.007 9.44C551.831 3.68 560.375 0.799995 571.639 0.799995ZM659.414 68V42.944H636.086V68H614.87V1.952H636.086V26.048H659.414V1.952H680.63V68H659.414ZM757.526 22.208C757.526 26.24 756.438 29.888 754.262 33.152C752.086 36.416 748.918 38.816 744.758 40.352L759.446 68H735.638L723.926 43.904H716.054V68H694.838V1.952H735.254C739.99 1.952 744.022 2.88 747.35 4.736C750.742 6.528 753.27 8.992 754.934 12.128C756.662 15.2 757.526 18.56 757.526 22.208ZM735.926 23.072C735.926 21.344 735.35 19.904 734.198 18.752C733.046 17.6 731.638 17.024 729.974 17.024H716.054V29.216H729.974C731.638 29.216 733.046 28.64 734.198 27.488C735.35 26.272 735.926 24.8 735.926 23.072ZM770.517 68V1.952H791.733V68H770.517ZM834.614 0.799995C843.062 0.799995 850.006 2.528 855.446 5.984C860.886 9.376 863.67 14.432 863.798 21.152V22.304H843.926V21.92C843.926 20 843.222 18.4 841.814 17.12C840.406 15.84 838.262 15.2 835.382 15.2C832.566 15.2 830.39 15.616 828.854 16.448C827.382 17.28 826.646 18.304 826.646 19.52C826.646 21.248 827.67 22.528 829.718 23.36C831.766 24.192 835.062 25.056 839.606 25.952C844.918 27.04 849.27 28.192 852.662 29.408C856.118 30.56 859.126 32.48 861.686 35.168C864.246 37.856 865.558 41.504 865.622 46.112C865.622 53.92 862.966 59.712 857.654 63.488C852.406 67.264 845.366 69.152 836.534 69.152C826.23 69.152 818.198 67.424 812.438 63.968C806.742 60.512 803.894 54.4 803.894 45.632H823.958C823.958 48.96 824.822 51.2 826.55 52.352C828.278 53.44 830.966 53.984 834.614 53.984C837.302 53.984 839.51 53.696 841.238 53.12C843.03 52.544 843.926 51.36 843.926 49.568C843.926 47.968 842.934 46.784 840.95 46.016C839.03 45.184 835.862 44.32 831.446 43.424C826.07 42.272 821.622 41.088 818.102 39.872C814.582 38.592 811.51 36.512 808.886 33.632C806.262 30.752 804.95 26.848 804.95 21.92C804.95 14.688 807.734 9.376 813.302 5.984C818.934 2.528 826.038 0.799995 834.614 0.799995ZM914.167 18.848V68H892.951V18.848H871.255V1.952H935.767V18.848H914.167ZM946.392 68V1.952H967.608V68H946.392ZM1027 68L1024.22 58.688H1001.08L998.297 68H976.601L1000.7 1.952H1025.37L1049.46 68H1027ZM1005.5 43.904H1019.8L1012.89 20.384H1012.5L1005.5 43.904ZM1104.7 68L1076.95 35.936V68H1057.46V1.952H1075.99L1103.74 34.496V1.952H1123.22V68H1104.7Z" fill="#FFFDFD"/>
</svg>
