<svg width="1124" height="70" viewBox="0 0 1124 70" fill="none" xmlns="http://www.w3.org/2000/svg">
<path d="M34.592 0.799995C44.384 0.799995 52.128 3.264 57.824 8.192C63.52 13.056 66.368 20.032 66.368 29.12H46.112C46.112 25.28 45.088 22.24 43.04 20C41.056 17.76 38.208 16.64 34.496 16.64C30.208 16.64 27.04 17.984 24.992 20.672C23.008 23.36 22.016 27.104 22.016 31.904V38.048C22.016 42.784 23.008 46.528 24.992 49.28C27.04 51.968 30.144 53.312 34.304 53.312C38.4 53.312 41.504 52.256 43.616 50.144C45.728 48.032 46.784 45.056 46.784 41.216H66.368C66.368 50.24 63.584 57.152 58.016 61.952C52.512 66.752 44.704 69.152 34.592 69.152C23.328 69.152 14.784 66.272 8.96 60.512C3.2 54.752 0.32 46.24 0.32 34.976C0.32 23.712 3.2 15.2 8.96 9.44C14.784 3.68 23.328 0.799995 34.592 0.799995ZM140.511 22.208C140.511 26.24 139.423 29.888 137.247 33.152C135.071 36.416 131.903 38.816 127.743 40.352L142.431 68H118.623L106.911 43.904H99.0388V68H77.8228V1.952H118.239C122.975 1.952 127.007 2.88 130.335 4.736C133.727 6.528 136.255 8.992 137.919 12.128C139.647 15.2 140.511 18.56 140.511 22.208ZM118.911 23.072C118.911 21.344 118.335 19.904 117.183 18.752C116.031 17.6 114.623 17.024 112.959 17.024H99.0388V29.216H112.959C114.623 29.216 116.031 28.64 117.183 27.488C118.335 26.272 118.911 24.8 118.911 23.072ZM152.542 1.952H209.662V17.792H173.758V26.912H204.478V42.08H173.758V52.16H210.334V68H152.542V1.952ZM266.079 68L263.295 58.688H240.159L237.375 68H215.679L239.775 1.952H264.447L288.543 68H266.079ZM244.575 43.904H258.879L251.967 20.384H251.583L244.575 43.904ZM327.901 18.848V68H306.685V18.848H284.989V1.952H349.501V18.848H327.901ZM360.127 68V1.952H381.343V68H360.127ZM414.431 68L391.007 1.952H413.663L426.911 46.112H427.295L440.639 1.952H462.335L439.007 68H414.431ZM471.198 1.952H528.318V17.792H492.414V26.912H523.134V42.08H492.414V52.16H528.99V68H471.198V1.952ZM571.967 0.799995C581.759 0.799995 589.503 3.264 595.199 8.192C600.895 13.056 603.743 20.032 603.743 29.12H583.487C583.487 25.28 582.463 22.24 580.415 20C578.431 17.76 575.583 16.64 571.871 16.64C567.583 16.64 564.415 17.984 562.367 20.672C560.383 23.36 559.391 27.104 559.391 31.904V38.048C559.391 42.784 560.383 46.528 562.367 49.28C564.415 51.968 567.519 53.312 571.679 53.312C575.775 53.312 578.879 52.256 580.991 50.144C583.103 48.032 584.159 45.056 584.159 41.216H603.743C603.743 50.24 600.959 57.152 595.391 61.952C589.887 66.752 582.079 69.152 571.967 69.152C560.703 69.152 552.159 66.272 546.335 60.512C540.575 54.752 537.695 46.24 537.695 34.976C537.695 23.712 540.575 15.2 546.335 9.44C552.159 3.68 560.703 0.799995 571.967 0.799995ZM659.742 68V42.944H636.414V68H615.198V1.952H636.414V26.048H659.742V1.952H680.958V68H659.742ZM757.855 22.208C757.855 26.24 756.767 29.888 754.591 33.152C752.415 36.416 749.247 38.816 745.087 40.352L759.775 68H735.967L724.255 43.904H716.383V68H695.167V1.952H735.583C740.319 1.952 744.351 2.88 747.679 4.736C751.071 6.528 753.599 8.992 755.263 12.128C756.991 15.2 757.855 18.56 757.855 22.208ZM736.255 23.072C736.255 21.344 735.679 19.904 734.527 18.752C733.375 17.6 731.967 17.024 730.303 17.024H716.383V29.216H730.303C731.967 29.216 733.375 28.64 734.527 27.488C735.679 26.272 736.255 24.8 736.255 23.072ZM770.845 68V1.952H792.061V68H770.845ZM834.942 0.799995C843.39 0.799995 850.334 2.528 855.774 5.984C861.214 9.376 863.998 14.432 864.126 21.152V22.304H844.254V21.92C844.254 20 843.55 18.4 842.142 17.12C840.734 15.84 838.59 15.2 835.71 15.2C832.894 15.2 830.718 15.616 829.182 16.448C827.71 17.28 826.974 18.304 826.974 19.52C826.974 21.248 827.998 22.528 830.046 23.36C832.094 24.192 835.39 25.056 839.934 25.952C845.246 27.04 849.598 28.192 852.99 29.408C856.446 30.56 859.454 32.48 862.014 35.168C864.574 37.856 865.886 41.504 865.95 46.112C865.95 53.92 863.294 59.712 857.982 63.488C852.734 67.264 845.694 69.152 836.862 69.152C826.558 69.152 818.526 67.424 812.766 63.968C807.07 60.512 804.222 54.4 804.222 45.632H824.286C824.286 48.96 825.15 51.2 826.878 52.352C828.606 53.44 831.294 53.984 834.942 53.984C837.63 53.984 839.838 53.696 841.566 53.12C843.358 52.544 844.254 51.36 844.254 49.568C844.254 47.968 843.262 46.784 841.278 46.016C839.358 45.184 836.19 44.32 831.774 43.424C826.398 42.272 821.95 41.088 818.43 39.872C814.91 38.592 811.838 36.512 809.214 33.632C806.59 30.752 805.278 26.848 805.278 21.92C805.278 14.688 808.062 9.376 813.63 5.984C819.262 2.528 826.366 0.799995 834.942 0.799995ZM914.495 18.848V68H893.279V18.848H871.583V1.952H936.095V18.848H914.495ZM946.72 68V1.952H967.936V68H946.72ZM1027.33 68L1024.54 58.688H1001.41L998.625 68H976.929L1001.02 1.952H1025.7L1049.79 68H1027.33ZM1005.82 43.904H1020.13L1013.22 20.384H1012.83L1005.82 43.904ZM1105.02 68L1077.28 35.936V68H1057.79V1.952H1076.32L1104.06 34.496V1.952H1123.55V68H1105.02Z" fill="black"/>
</svg>
